<svg version="1" xmlns="http://www.w3.org/2000/svg" width="346.667" height="346.667" viewBox="0 0 260.000000 260.000000"><path d="M72.6 12.2c-2.3 1.9-4.9 5.7-7.1 10.6-4.4 9.6-5.1 10.9-9.8 17.5-3.5 4.9-3.7 5.7-2.9 9.3.5 2.2.5 5.2 0 6.9-.5 1.6-1.1 4.1-1.4 5.4-1 4.9-8.3 18.8-12.1 23.3-3.8 4.3-4.1 5.1-4.1 10.6 0 3.2-.3 7.4-.7 9.3-1.4 6.2-6.6 18.3-10.6 24.5-3.4 5.3-4 7-4.3 12.6-.4 9.2-7.3 26.5-14.4 35.8-3 4-3.3 5-2.9 9 .3 2.5-.1 8.5-1 13.4-1.3 7.3-1.4 10.1-.5 15 1.5 8.1 1.3 7.4 5 13.4 4.5 7.3 10.5 12.6 19.2 17l7.5 3.7h160l5-2.7c11.8-6.3 16.2-12.4 21.4-30.3 1.6-5.5 3.9-13.2 5.1-17 1.2-3.9 2.3-7.8 2.5-8.7.2-.9.9-2.6 1.5-3.7.6-1.2.8-2.1.5-2.1-.2 0 .1-1.7.9-3.8.8-2 2.4-7.1 3.6-11.2 2.3-8.1 2.5-8.7 6.9-23 1.6-5.2 4.4-14.2 6.1-20 1.7-5.8 3.5-11.6 3.9-13 .5-1.4 1.4-4.3 2-6.5.6-2.2 2.5-8.3 4.2-13.5 4.3-13 4.6-22.9.7-28.7-1.4-2.2-4.2-5-6.2-6.1l-3.6-2.1v4.4c0 2.4-.4 5.4-.9 6.7-.5 1.3-1.9 5.7-3.1 9.8-2.3 8-2.4 8.3-6.9 23-1.6 5.2-3.9 12.9-5.2 17-1.2 4.1-3.5 11.8-5.2 17-1.7 5.2-3.1 10.2-3.3 11-.1 1.2-4.1 14.3-14.7 48.5-.6 2.2-1.2 4.2-1.3 4.5-.1.9-5.5 18.5-6.6 21.5-1.5 4-6.3 8.3-10.2 9-1.7.3-38.4.5-81.6.3-67.1-.3-78.9-.5-81.5-1.8-8-4-12-12.4-7.7-16.3 1.6-1.4 9.4-1.6 75.7-2 40.7-.1 74.9-.6 76-.9 8.5-2.6 11.1-5 15.2-13.6 1.4-3.1 2.8-6.2 2.9-6.7.1-.6 1.2-3.6 2.3-6.8 1.1-3.1 1.8-5.7 1.5-5.7-.3 0 0-.9.6-2.1.6-1.1 1.3-2.8 1.5-3.9.2-1 1.5-5.5 3-10.1s2.9-9.5 3.1-10.8c.3-1.4.7-2.8 1-3.3.3-.4.7-1.6.9-2.5.2-1 1.5-5.6 3-10.3 1.5-4.7 2.8-9 2.9-9.5.1-.6 1.4-4.8 2.9-9.5 2.8-9 10.9-36 15.7-52 1.6-5.2 4-13.3 5.4-17.9 4.3-13.9 3.2-22.3-3.6-28.7-6.6-6.2-1.9-5.9-80.5-6l-72.2-.1-3.5 2.9zm125.1 38c1.2 2 1.3 4 .3 5.8-.5.9-1.1 3-1.4 4.6-.3 1.6-1.4 4-2.4 5.4l-1.9 2.5-51 .3c-44.8.2-51.2 0-51.7-1.3-.8-2.2 3.2-14.3 5.5-16.6 1.8-1.8 3.7-1.9 51.8-1.9 38.9 0 50.2.3 50.8 1.2zm-12.6 40.5c1.1 1.2.9 2.7-1.1 8.4-3.8 11.2 1.3 10.3-56.1 10.3-47.1.1-50.2 0-51.1-1.7-.5-1-.7-2.5-.4-3.5.3-.9.6-2 .6-2.5 0-.4.7-2.1 1.5-3.7.9-1.7 1.2-3 .8-3-.4 0 .6-1.3 2.1-2.9l2.8-3h49.9c43.3 0 49.9.2 51 1.6z"/></svg>